# Original fortune-teller table; triangulated; Y up
v 10.000000 3.950000 -0.000000
v 9.914449 3.950000 -1.305262
v 9.659258 3.950000 -2.588190
v 9.238795 3.950000 -3.826834
v 8.660254 3.950000 -5.000000
v 7.933533 3.950000 -6.087614
v 7.071068 3.950000 -7.071068
v 6.087614 3.950000 -7.933533
v 5.000000 3.950000 -8.660254
v 3.826834 3.950000 -9.238795
v 2.588190 3.950000 -9.659258
v 1.305262 3.950000 -9.914449
v 0.000000 3.950000 -10.000000
v -1.305262 3.950000 -9.914449
v -2.588190 3.950000 -9.659258
v -3.826834 3.950000 -9.238795
v -5.000000 3.950000 -8.660254
v -6.087614 3.950000 -7.933533
v -7.071068 3.950000 -7.071068
v -7.933533 3.950000 -6.087614
v -8.660254 3.950000 -5.000000
v -9.238795 3.950000 -3.826834
v -9.659258 3.950000 -2.588190
v -9.914449 3.950000 -1.305262
v -10.000000 3.950000 -0.000000
v -9.914449 3.950000 1.305262
v -9.659258 3.950000 2.588190
v -9.238795 3.950000 3.826834
v -8.660254 3.950000 5.000000
v -7.933533 3.950000 6.087614
v -7.071068 3.950000 7.071068
v -6.087614 3.950000 7.933533
v -5.000000 3.950000 8.660254
v -3.826834 3.950000 9.238795
v -2.588190 3.950000 9.659258
v -1.305262 3.950000 9.914449
v -0.000000 3.950000 10.000000
v 1.305262 3.950000 9.914449
v 2.588190 3.950000 9.659258
v 3.826834 3.950000 9.238795
v 5.000000 3.950000 8.660254
v 6.087614 3.950000 7.933533
v 7.071068 3.950000 7.071068
v 7.933533 3.950000 6.087614
v 8.660254 3.950000 5.000000
v 9.238795 3.950000 3.826834
v 9.659258 3.950000 2.588190
v 9.914449 3.950000 1.305262
v 10.000000 4.500000 -0.000000
v 9.914449 4.500000 -1.305262
v 9.659258 4.500000 -2.588190
v 9.238795 4.500000 -3.826834
v 8.660254 4.500000 -5.000000
v 7.933533 4.500000 -6.087614
v 7.071068 4.500000 -7.071068
v 6.087614 4.500000 -7.933533
v 5.000000 4.500000 -8.660254
v 3.826834 4.500000 -9.238795
v 2.588190 4.500000 -9.659258
v 1.305262 4.500000 -9.914449
v 0.000000 4.500000 -10.000000
v -1.305262 4.500000 -9.914449
v -2.588190 4.500000 -9.659258
v -3.826834 4.500000 -9.238795
v -5.000000 4.500000 -8.660254
v -6.087614 4.500000 -7.933533
v -7.071068 4.500000 -7.071068
v -7.933533 4.500000 -6.087614
v -8.660254 4.500000 -5.000000
v -9.238795 4.500000 -3.826834
v -9.659258 4.500000 -2.588190
v -9.914449 4.500000 -1.305262
v -10.000000 4.500000 -0.000000
v -9.914449 4.500000 1.305262
v -9.659258 4.500000 2.588190
v -9.238795 4.500000 3.826834
v -8.660254 4.500000 5.000000
v -7.933533 4.500000 6.087614
v -7.071068 4.500000 7.071068
v -6.087614 4.500000 7.933533
v -5.000000 4.500000 8.660254
v -3.826834 4.500000 9.238795
v -2.588190 4.500000 9.659258
v -1.305262 4.500000 9.914449
v -0.000000 4.500000 10.000000
v 1.305262 4.500000 9.914449
v 2.588190 4.500000 9.659258
v 3.826834 4.500000 9.238795
v 5.000000 4.500000 8.660254
v 6.087614 4.500000 7.933533
v 7.071068 4.500000 7.071068
v 7.933533 4.500000 6.087614
v 8.660254 4.500000 5.000000
v 9.238795 4.500000 3.826834
v 9.659258 4.500000 2.588190
v 9.914449 4.500000 1.305262
v 0.000000 3.950000 0.000000
v 0.000000 4.500000 0.000000
vt 0.8000000 0.0500000
vt 0.8037500 0.0500000
vt 0.8075000 0.0500000
vt 0.8112500 0.0500000
vt 0.8150000 0.0500000
vt 0.8187500 0.0500000
vt 0.8225000 0.0500000
vt 0.8262500 0.0500000
vt 0.8300000 0.0500000
vt 0.8337500 0.0500000
vt 0.8375000 0.0500000
vt 0.8412500 0.0500000
vt 0.8450000 0.0500000
vt 0.8487500 0.0500000
vt 0.8525000 0.0500000
vt 0.8562500 0.0500000
vt 0.8600000 0.0500000
vt 0.8637500 0.0500000
vt 0.8675000 0.0500000
vt 0.8712500 0.0500000
vt 0.8750000 0.0500000
vt 0.8787500 0.0500000
vt 0.8825000 0.0500000
vt 0.8862500 0.0500000
vt 0.8900000 0.0500000
vt 0.8937500 0.0500000
vt 0.8975000 0.0500000
vt 0.9012500 0.0500000
vt 0.9050000 0.0500000
vt 0.9087500 0.0500000
vt 0.9125000 0.0500000
vt 0.9162500 0.0500000
vt 0.9200000 0.0500000
vt 0.9237500 0.0500000
vt 0.9275000 0.0500000
vt 0.9312500 0.0500000
vt 0.9350000 0.0500000
vt 0.9387500 0.0500000
vt 0.9425000 0.0500000
vt 0.9462500 0.0500000
vt 0.9500000 0.0500000
vt 0.9537500 0.0500000
vt 0.9575000 0.0500000
vt 0.9612500 0.0500000
vt 0.9650000 0.0500000
vt 0.9687500 0.0500000
vt 0.9725000 0.0500000
vt 0.9762500 0.0500000
vt 0.8000000 0.7500000
vt 0.8037500 0.7500000
vt 0.8075000 0.7500000
vt 0.8112500 0.7500000
vt 0.8150000 0.7500000
vt 0.8187500 0.7500000
vt 0.8225000 0.7500000
vt 0.8262500 0.7500000
vt 0.8300000 0.7500000
vt 0.8337500 0.7500000
vt 0.8375000 0.7500000
vt 0.8412500 0.7500000
vt 0.8450000 0.7500000
vt 0.8487500 0.7500000
vt 0.8525000 0.7500000
vt 0.8562500 0.7500000
vt 0.8600000 0.7500000
vt 0.8637500 0.7500000
vt 0.8675000 0.7500000
vt 0.8712500 0.7500000
vt 0.8750000 0.7500000
vt 0.8787500 0.7500000
vt 0.8825000 0.7500000
vt 0.8862500 0.7500000
vt 0.8900000 0.7500000
vt 0.8937500 0.7500000
vt 0.8975000 0.7500000
vt 0.9012500 0.7500000
vt 0.9050000 0.7500000
vt 0.9087500 0.7500000
vt 0.9125000 0.7500000
vt 0.9162500 0.7500000
vt 0.9200000 0.7500000
vt 0.9237500 0.7500000
vt 0.9275000 0.7500000
vt 0.9312500 0.7500000
vt 0.9350000 0.7500000
vt 0.9387500 0.7500000
vt 0.9425000 0.7500000
vt 0.9462500 0.7500000
vt 0.9500000 0.7500000
vt 0.9537500 0.7500000
vt 0.9575000 0.7500000
vt 0.9612500 0.7500000
vt 0.9650000 0.7500000
vt 0.9687500 0.7500000
vt 0.9725000 0.7500000
vt 0.9762500 0.7500000
vt 0.8500000 0.4000000
vt 0.8500000 0.4000000
vn 0.082221 -0.996613 -0.001796
vn 0.081283 -0.996613 -0.012513
vn 0.078954 -0.996613 -0.023015
vn 0.075274 -0.996613 -0.033124
vn 0.070307 -0.996613 -0.042666
vn 0.064136 -0.996613 -0.051478
vn 0.056868 -0.996613 -0.059409
vn 0.048628 -0.996613 -0.066323
vn 0.039555 -0.996613 -0.072103
vn 0.029805 -0.996613 -0.076649
vn 0.019545 -0.996613 -0.079884
vn 0.008951 -0.996613 -0.081752
vn -0.001796 -0.996613 -0.082221
vn -0.012513 -0.996613 -0.081283
vn -0.023015 -0.996613 -0.078954
vn -0.033124 -0.996613 -0.075274
vn -0.042666 -0.996613 -0.070307
vn -0.051478 -0.996613 -0.064136
vn -0.059409 -0.996613 -0.056868
vn -0.066323 -0.996613 -0.048628
vn -0.072103 -0.996613 -0.039555
vn -0.076649 -0.996613 -0.029805
vn -0.079884 -0.996613 -0.019545
vn -0.081752 -0.996613 -0.008951
vn -0.082221 -0.996613 0.001796
vn -0.081283 -0.996613 0.012513
vn -0.078954 -0.996613 0.023015
vn -0.075274 -0.996613 0.033124
vn -0.070307 -0.996613 0.042666
vn -0.064136 -0.996613 0.051478
vn -0.056868 -0.996613 0.059409
vn -0.048628 -0.996613 0.066323
vn -0.039555 -0.996613 0.072103
vn -0.029805 -0.996613 0.076649
vn -0.019545 -0.996613 0.079884
vn -0.008951 -0.996613 0.081752
vn 0.001796 -0.996613 0.082221
vn 0.012513 -0.996613 0.081283
vn 0.023015 -0.996613 0.078954
vn 0.033124 -0.996613 0.075274
vn 0.042666 -0.996613 0.070307
vn 0.051478 -0.996613 0.064136
vn 0.059409 -0.996613 0.056868
vn 0.066323 -0.996613 0.048628
vn 0.072103 -0.996613 0.039555
vn 0.076649 -0.996613 0.029805
vn 0.079884 -0.996613 0.019545
vn 0.081752 -0.996613 0.008951
vn 0.082221 0.996613 0.001796
vn 0.081752 0.996613 -0.008951
vn 0.079884 0.996613 -0.019545
vn 0.076649 0.996613 -0.029805
vn 0.072103 0.996613 -0.039555
vn 0.066323 0.996613 -0.048628
vn 0.059409 0.996613 -0.056868
vn 0.051478 0.996613 -0.064136
vn 0.042666 0.996613 -0.070307
vn 0.033124 0.996613 -0.075274
vn 0.023015 0.996613 -0.078954
vn 0.012513 0.996613 -0.081283
vn 0.001796 0.996613 -0.082221
vn -0.008951 0.996613 -0.081752
vn -0.019545 0.996613 -0.079884
vn -0.029805 0.996613 -0.076649
vn -0.039555 0.996613 -0.072103
vn -0.048628 0.996613 -0.066323
vn -0.056868 0.996613 -0.059409
vn -0.064136 0.996613 -0.051478
vn -0.070307 0.996613 -0.042666
vn -0.075274 0.996613 -0.033124
vn -0.078954 0.996613 -0.023015
vn -0.081283 0.996613 -0.012513
vn -0.082221 0.996613 -0.001796
vn -0.081752 0.996613 0.008951
vn -0.079884 0.996613 0.019545
vn -0.076649 0.996613 0.029805
vn -0.072103 0.996613 0.039555
vn -0.066323 0.996613 0.048628
vn -0.059409 0.996613 0.056868
vn -0.051478 0.996613 0.064136
vn -0.042666 0.996613 0.070307
vn -0.033124 0.996613 0.075274
vn -0.023015 0.996613 0.078954
vn -0.012513 0.996613 0.081283
vn -0.001796 0.996613 0.082221
vn 0.008951 0.996613 0.081752
vn 0.019545 0.996613 0.079884
vn 0.029805 0.996613 0.076649
vn 0.039555 0.996613 0.072103
vn 0.048628 0.996613 0.066323
vn 0.056868 0.996613 0.059409
vn 0.064136 0.996613 0.051478
vn 0.070307 0.996613 0.042666
vn 0.075274 0.996613 0.033124
vn 0.078954 0.996613 0.023015
vn 0.081283 0.996613 0.012513
vn 0.000000 -1.000000 -0.000000
vn 0.000000 1.000000 -0.000000
o Flat_playing_surface
s 1
f 1/1/1 2/2/2 50/50/50
f 1/1/1 50/50/50 49/49/49
f 2/2/2 3/3/3 51/51/51
f 2/2/2 51/51/51 50/50/50
f 3/3/3 4/4/4 52/52/52
f 3/3/3 52/52/52 51/51/51
f 4/4/4 5/5/5 53/53/53
f 4/4/4 53/53/53 52/52/52
f 5/5/5 6/6/6 54/54/54
f 5/5/5 54/54/54 53/53/53
f 6/6/6 7/7/7 55/55/55
f 6/6/6 55/55/55 54/54/54
f 7/7/7 8/8/8 56/56/56
f 7/7/7 56/56/56 55/55/55
f 8/8/8 9/9/9 57/57/57
f 8/8/8 57/57/57 56/56/56
f 9/9/9 10/10/10 58/58/58
f 9/9/9 58/58/58 57/57/57
f 10/10/10 11/11/11 59/59/59
f 10/10/10 59/59/59 58/58/58
f 11/11/11 12/12/12 60/60/60
f 11/11/11 60/60/60 59/59/59
f 12/12/12 13/13/13 61/61/61
f 12/12/12 61/61/61 60/60/60
f 13/13/13 14/14/14 62/62/62
f 13/13/13 62/62/62 61/61/61
f 14/14/14 15/15/15 63/63/63
f 14/14/14 63/63/63 62/62/62
f 15/15/15 16/16/16 64/64/64
f 15/15/15 64/64/64 63/63/63
f 16/16/16 17/17/17 65/65/65
f 16/16/16 65/65/65 64/64/64
f 17/17/17 18/18/18 66/66/66
f 17/17/17 66/66/66 65/65/65
f 18/18/18 19/19/19 67/67/67
f 18/18/18 67/67/67 66/66/66
f 19/19/19 20/20/20 68/68/68
f 19/19/19 68/68/68 67/67/67
f 20/20/20 21/21/21 69/69/69
f 20/20/20 69/69/69 68/68/68
f 21/21/21 22/22/22 70/70/70
f 21/21/21 70/70/70 69/69/69
f 22/22/22 23/23/23 71/71/71
f 22/22/22 71/71/71 70/70/70
f 23/23/23 24/24/24 72/72/72
f 23/23/23 72/72/72 71/71/71
f 24/24/24 25/25/25 73/73/73
f 24/24/24 73/73/73 72/72/72
f 25/25/25 26/26/26 74/74/74
f 25/25/25 74/74/74 73/73/73
f 26/26/26 27/27/27 75/75/75
f 26/26/26 75/75/75 74/74/74
f 27/27/27 28/28/28 76/76/76
f 27/27/27 76/76/76 75/75/75
f 28/28/28 29/29/29 77/77/77
f 28/28/28 77/77/77 76/76/76
f 29/29/29 30/30/30 78/78/78
f 29/29/29 78/78/78 77/77/77
f 30/30/30 31/31/31 79/79/79
f 30/30/30 79/79/79 78/78/78
f 31/31/31 32/32/32 80/80/80
f 31/31/31 80/80/80 79/79/79
f 32/32/32 33/33/33 81/81/81
f 32/32/32 81/81/81 80/80/80
f 33/33/33 34/34/34 82/82/82
f 33/33/33 82/82/82 81/81/81
f 34/34/34 35/35/35 83/83/83
f 34/34/34 83/83/83 82/82/82
f 35/35/35 36/36/36 84/84/84
f 35/35/35 84/84/84 83/83/83
f 36/36/36 37/37/37 85/85/85
f 36/36/36 85/85/85 84/84/84
f 37/37/37 38/38/38 86/86/86
f 37/37/37 86/86/86 85/85/85
f 38/38/38 39/39/39 87/87/87
f 38/38/38 87/87/87 86/86/86
f 39/39/39 40/40/40 88/88/88
f 39/39/39 88/88/88 87/87/87
f 40/40/40 41/41/41 89/89/89
f 40/40/40 89/89/89 88/88/88
f 41/41/41 42/42/42 90/90/90
f 41/41/41 90/90/90 89/89/89
f 42/42/42 43/43/43 91/91/91
f 42/42/42 91/91/91 90/90/90
f 43/43/43 44/44/44 92/92/92
f 43/43/43 92/92/92 91/91/91
f 44/44/44 45/45/45 93/93/93
f 44/44/44 93/93/93 92/92/92
f 45/45/45 46/46/46 94/94/94
f 45/45/45 94/94/94 93/93/93
f 46/46/46 47/47/47 95/95/95
f 46/46/46 95/95/95 94/94/94
f 47/47/47 48/48/48 96/96/96
f 47/47/47 96/96/96 95/95/95
f 48/48/48 1/1/1 49/49/49
f 48/48/48 49/49/49 96/96/96
f 97/97/97 2/2/2 1/1/1
f 97/97/97 3/3/3 2/2/2
f 97/97/97 4/4/4 3/3/3
f 97/97/97 5/5/5 4/4/4
f 97/97/97 6/6/6 5/5/5
f 97/97/97 7/7/7 6/6/6
f 97/97/97 8/8/8 7/7/7
f 97/97/97 9/9/9 8/8/8
f 97/97/97 10/10/10 9/9/9
f 97/97/97 11/11/11 10/10/10
f 97/97/97 12/12/12 11/11/11
f 97/97/97 13/13/13 12/12/12
f 97/97/97 14/14/14 13/13/13
f 97/97/97 15/15/15 14/14/14
f 97/97/97 16/16/16 15/15/15
f 97/97/97 17/17/17 16/16/16
f 97/97/97 18/18/18 17/17/17
f 97/97/97 19/19/19 18/18/18
f 97/97/97 20/20/20 19/19/19
f 97/97/97 21/21/21 20/20/20
f 97/97/97 22/22/22 21/21/21
f 97/97/97 23/23/23 22/22/22
f 97/97/97 24/24/24 23/23/23
f 97/97/97 25/25/25 24/24/24
f 97/97/97 26/26/26 25/25/25
f 97/97/97 27/27/27 26/26/26
f 97/97/97 28/28/28 27/27/27
f 97/97/97 29/29/29 28/28/28
f 97/97/97 30/30/30 29/29/29
f 97/97/97 31/31/31 30/30/30
f 97/97/97 32/32/32 31/31/31
f 97/97/97 33/33/33 32/32/32
f 97/97/97 34/34/34 33/33/33
f 97/97/97 35/35/35 34/34/34
f 97/97/97 36/36/36 35/35/35
f 97/97/97 37/37/37 36/36/36
f 97/97/97 38/38/38 37/37/37
f 97/97/97 39/39/39 38/38/38
f 97/97/97 40/40/40 39/39/39
f 97/97/97 41/41/41 40/40/40
f 97/97/97 42/42/42 41/41/41
f 97/97/97 43/43/43 42/42/42
f 97/97/97 44/44/44 43/43/43
f 97/97/97 45/45/45 44/44/44
f 97/97/97 46/46/46 45/45/45
f 97/97/97 47/47/47 46/46/46
f 97/97/97 48/48/48 47/47/47
f 97/97/97 1/1/1 48/48/48
f 98/98/98 49/49/49 50/50/50
f 98/98/98 50/50/50 51/51/51
f 98/98/98 51/51/51 52/52/52
f 98/98/98 52/52/52 53/53/53
f 98/98/98 53/53/53 54/54/54
f 98/98/98 54/54/54 55/55/55
f 98/98/98 55/55/55 56/56/56
f 98/98/98 56/56/56 57/57/57
f 98/98/98 57/57/57 58/58/58
f 98/98/98 58/58/58 59/59/59
f 98/98/98 59/59/59 60/60/60
f 98/98/98 60/60/60 61/61/61
f 98/98/98 61/61/61 62/62/62
f 98/98/98 62/62/62 63/63/63
f 98/98/98 63/63/63 64/64/64
f 98/98/98 64/64/64 65/65/65
f 98/98/98 65/65/65 66/66/66
f 98/98/98 66/66/66 67/67/67
f 98/98/98 67/67/67 68/68/68
f 98/98/98 68/68/68 69/69/69
f 98/98/98 69/69/69 70/70/70
f 98/98/98 70/70/70 71/71/71
f 98/98/98 71/71/71 72/72/72
f 98/98/98 72/72/72 73/73/73
f 98/98/98 73/73/73 74/74/74
f 98/98/98 74/74/74 75/75/75
f 98/98/98 75/75/75 76/76/76
f 98/98/98 76/76/76 77/77/77
f 98/98/98 77/77/77 78/78/78
f 98/98/98 78/78/78 79/79/79
f 98/98/98 79/79/79 80/80/80
f 98/98/98 80/80/80 81/81/81
f 98/98/98 81/81/81 82/82/82
f 98/98/98 82/82/82 83/83/83
f 98/98/98 83/83/83 84/84/84
f 98/98/98 84/84/84 85/85/85
f 98/98/98 85/85/85 86/86/86
f 98/98/98 86/86/86 87/87/87
f 98/98/98 87/87/87 88/88/88
f 98/98/98 88/88/88 89/89/89
f 98/98/98 89/89/89 90/90/90
f 98/98/98 90/90/90 91/91/91
f 98/98/98 91/91/91 92/92/92
f 98/98/98 92/92/92 93/93/93
f 98/98/98 93/93/93 94/94/94
f 98/98/98 94/94/94 95/95/95
f 98/98/98 95/95/95 96/96/96
f 98/98/98 96/96/96 49/49/49
